<svg width="129" height="34" viewBox="0 0 129 34" fill="none" xmlns="http://www.w3.org/2000/svg">
<path d="M15.887 0.575008C10.4897 0.868996 5.52961 3.92194 2.71035 8.70865C0.659984 12.1762 -0.00337148 16.4955 0.886128 20.5661C1.37611 22.8276 2.58974 25.3528 4.0446 27.1771C4.57981 27.848 5.85375 29.137 6.52465 29.6873C8.89916 31.6246 11.9295 32.8985 15.0578 33.2829C15.9624 33.3885 18.0504 33.3734 18.9776 33.2528C25.6413 32.3558 31.0763 27.6143 32.7649 21.2219C33.2096 19.5409 33.2624 19.0962 33.2624 16.9629C33.2624 14.8296 33.2096 14.3924 32.7649 12.7039C31.212 6.82412 26.4102 2.24093 20.4099 0.914227C18.9701 0.597622 17.5228 0.492088 15.887 0.575008ZM17.9072 8.4825C20.6963 8.77649 23.0859 9.89213 24.7594 11.6787C27.3148 14.4075 27.2696 18.1615 24.6614 20.845L24.1036 21.4179L24.5031 21.8853C25.1664 22.6617 25.8524 23.212 26.7419 23.6492L27.3073 23.9281L26.0635 23.9357C24.3222 23.9357 23.0935 23.7171 22.0004 23.1969C21.6386 23.0311 21.5632 23.016 21.3597 23.0989C18.3369 24.29 14.9975 24.2975 12.0501 23.114C9.26853 21.9984 7.31615 19.8952 6.79602 17.4529C6.66033 16.8197 6.66033 15.591 6.79602 14.9502C7.67044 10.8495 12.6758 7.93222 17.9072 8.4825Z" fill="white"/>
<path d="M11.3717 11.8602C10.9647 12.0637 10.7988 12.3502 10.7988 12.8175C10.7988 13.2547 10.9345 13.5035 11.319 13.7899C11.5225 13.9482 11.5903 13.9482 16.6032 13.9482C21.616 13.9482 21.6839 13.9482 21.8874 13.7899C22.4226 13.3904 22.5658 12.8778 22.2794 12.3351C21.9477 11.6943 22.2492 11.7245 16.6032 11.7245C12.0125 11.7245 11.6054 11.732 11.3717 11.8602Z" fill="white"/>
<path d="M11.3717 15.6287C10.9647 15.8323 10.7988 16.1187 10.7988 16.5861C10.7988 17.0233 10.9345 17.272 11.319 17.5585C11.5225 17.7168 11.5903 17.7168 16.6032 17.7168C21.616 17.7168 21.6839 17.7168 21.8874 17.5585C22.4226 17.159 22.5658 16.6464 22.2794 16.1036C21.9477 15.4629 22.2492 15.493 16.6032 15.493C12.0125 15.493 11.6054 15.5006 11.3717 15.6287Z" fill="white"/>
<path d="M11.3116 19.111C10.6709 19.503 10.588 20.3548 11.1458 20.89L11.3719 21.1086L16.5129 21.1312C21.5032 21.1463 21.6615 21.1463 21.8952 21.0031C22.257 20.7769 22.4002 20.5055 22.4002 20.0608C22.4002 19.7744 22.355 19.601 22.2268 19.4276C21.8801 18.9376 22.1288 18.9602 16.5883 18.9602C11.7338 18.9602 11.5453 18.9678 11.3116 19.111Z" fill="white"/>
<path d="M38.7275 17.7168V33.7354H39.2175H39.7075V17.7168V1.69831H39.2175H38.7275V17.7168Z" fill="white"/>
<path d="M95.1504 2.52777C92.6628 2.91975 90.7708 4.32938 90.0999 6.29683C89.723 7.40494 89.6853 8.68642 89.9868 9.87745C90.522 11.958 92.0372 13.0284 95.8515 14.0234C98.5124 14.7169 99.5301 15.2069 99.8316 15.923C100.065 16.4733 99.8919 17.2723 99.4396 17.6945C98.5275 18.5463 96.1982 18.5538 94.2609 17.7246C93.492 17.3854 92.6779 16.9181 92.0296 16.4281L91.5095 16.0361L90.2582 17.5362L89.0068 19.0287L89.6325 19.5112C91.1175 20.672 92.693 21.3957 94.6604 21.8329C95.6856 22.0591 97.8264 22.1118 98.8064 21.946C101.558 21.4635 103.344 20.0087 103.947 17.7623C104.06 17.3327 104.098 16.9407 104.106 16.2095C104.113 15.1014 103.993 14.4757 103.631 13.7294C102.907 12.2293 101.045 11.1288 97.8792 10.3222C96.1454 9.88498 94.8489 9.38747 94.4418 9.00302C94.0046 8.58843 93.8539 7.74416 94.1252 7.21649C94.4192 6.65113 94.9695 6.34206 95.8741 6.22145C97.2762 6.04808 99.0552 6.58328 100.789 7.69893C101.068 7.87984 101.324 8.03061 101.354 8.03061C101.392 8.03061 103.231 5.40734 103.503 4.96259C103.586 4.8269 102.734 4.21631 101.746 3.70372C100.186 2.8896 98.7536 2.53531 96.8465 2.49008C96.1605 2.475 95.3992 2.49008 95.1504 2.52777Z" fill="white"/>
<path d="M111.44 12.1533C109.201 17.4149 107.362 21.7342 107.347 21.7719C107.324 21.8021 108.289 21.8171 109.48 21.8096L111.644 21.787L112.511 19.6537L113.378 17.5279H117.388H121.406L121.602 17.9953C121.707 18.2591 122.099 19.2165 122.469 20.1286L123.147 21.787L125.333 21.8096C126.539 21.8171 127.527 21.8021 127.527 21.7644C127.527 21.7342 125.702 17.4149 123.464 12.1683L119.408 2.64015L117.456 2.61753L115.503 2.60246L111.44 12.1533ZM118.669 10.7964L119.891 13.7966L118.662 13.8192C117.991 13.8267 116.86 13.8267 116.159 13.8192L114.878 13.7966L116.121 10.7587C116.807 9.09278 117.388 7.74346 117.41 7.75853C117.426 7.78115 117.991 9.14555 118.669 10.7964Z" fill="white"/>
<path d="M46.5971 2.78427C46.5745 2.83704 46.5745 5.64876 46.5896 9.0183C46.6198 15.6142 46.6198 15.5689 47.0268 16.9635C47.7505 19.4058 49.5822 21.1471 52.1075 21.7879C54.0297 22.2779 56.4193 22.21 58.1757 21.6145C60.8819 20.6949 62.4724 18.7802 63.0529 15.7197C63.1735 15.0639 63.1886 14.4759 63.1886 8.86V2.71643L61.1005 2.69382L59.0124 2.67874L58.9823 8.72432C58.9597 14.1518 58.9446 14.8302 58.8315 15.2599C58.3114 17.1896 56.9621 18.2073 54.8966 18.2073C52.8463 18.2073 51.4894 17.1595 50.9617 15.1845C50.8487 14.7548 50.8336 14.0613 50.811 8.68663L50.7808 2.67874H48.7078C47.0193 2.67874 46.6273 2.70135 46.5971 2.78427Z" fill="white"/>
<path d="M69.1064 12.2518V21.8252H71.2171H73.3278V18.8778V15.9379L74.4208 14.8298C75.1068 14.1288 75.5365 13.7519 75.5666 13.8046C75.6043 13.8499 76.931 15.6741 78.5216 17.8601L81.4162 21.8252H83.9339C85.3134 21.8252 86.4441 21.8101 86.4441 21.795C86.4441 21.7724 84.6425 19.3225 82.4414 16.345C80.2327 13.375 78.4311 10.9024 78.4236 10.8497C78.416 10.8045 80.1272 8.98023 82.2228 6.79417C84.3184 4.60811 86.0371 2.78389 86.0522 2.74619C86.0672 2.7085 85.0571 2.67835 83.5646 2.67835H81.0544L77.2099 6.82432L73.3655 10.9703L73.3278 6.8394L73.2901 2.71604L71.202 2.69343L69.1064 2.67835V12.2518Z" fill="white"/>
<path d="M76.9836 27.185C76.3806 27.2604 75.8604 27.5243 75.4383 27.9765C74.8503 28.6022 74.7222 28.9414 74.7222 29.8912C74.7222 30.6073 74.7448 30.728 74.9332 31.1124C75.2046 31.6551 75.6644 32.1225 76.1921 32.3713C76.7801 32.6502 77.7148 32.6803 78.3179 32.4542C78.8908 32.2431 79.5164 31.6702 79.7878 31.1124C79.9762 30.728 79.9989 30.6073 79.9989 29.8912C79.9989 29.1902 79.9762 29.047 79.8029 28.6776C79.3053 27.6222 78.1897 27.0343 76.9836 27.185ZM78.3405 27.9992C79.8029 28.8208 79.7652 31.0747 78.2726 31.8285C77.255 32.3411 75.966 31.8813 75.5061 30.8335C74.9709 29.6123 75.5891 28.1424 76.7801 27.8032C77.2776 27.6675 77.8806 27.7429 78.3405 27.9992Z" fill="white"/>
<path d="M109.549 27.185C108.945 27.2604 108.425 27.5243 108.003 27.9765C107.415 28.6022 107.287 28.9414 107.287 29.8912C107.287 30.5847 107.31 30.7355 107.483 31.0973C107.732 31.625 108.229 32.1225 108.757 32.3713C109.345 32.6502 110.28 32.6803 110.883 32.4542C111.456 32.2431 112.081 31.6702 112.353 31.1124C112.541 30.728 112.564 30.6073 112.564 29.8912C112.564 29.1902 112.541 29.047 112.368 28.6776C111.87 27.6222 110.755 27.0343 109.549 27.185ZM110.905 27.9992C112.368 28.8208 112.33 31.0747 110.838 31.8285C109.82 32.3411 108.531 31.8813 108.071 30.8335C107.536 29.6123 108.154 28.1424 109.345 27.8032C109.843 27.6675 110.446 27.7429 110.905 27.9992Z" fill="white"/>
<path d="M81.6496 27.2907C80.9637 27.547 80.5265 28.3083 80.7074 28.9566C80.8808 29.5974 81.2426 29.8537 82.4185 30.1627C83.5417 30.4492 83.8055 30.6452 83.8055 31.1728C83.8055 31.7382 83.3683 32.0322 82.5542 32.0246C81.9813 32.0171 81.4084 31.7985 81.0315 31.4517L80.8506 31.2859L80.6697 31.497C80.5717 31.61 80.4888 31.7307 80.4888 31.7608C80.4888 31.8362 81.1597 32.2809 81.5064 32.4317C81.725 32.5222 82.019 32.5598 82.5618 32.5674C83.2025 32.5674 83.3608 32.5448 83.6322 32.4015C84.1297 32.1377 84.3558 31.7683 84.3935 31.2105C84.4538 30.2909 84.0015 29.8913 82.5467 29.5521C81.9738 29.4164 81.4989 29.1903 81.3933 28.9943C81.3557 28.9114 81.318 28.7154 81.318 28.5496C81.318 27.7204 82.5844 27.449 83.5869 28.0747L83.9412 28.2933L84.1071 28.0671C84.3106 27.7957 84.2503 27.7128 83.6699 27.4264C83.1573 27.1776 82.1547 27.1098 81.6496 27.2907Z" fill="white"/>
<path d="M120.192 29.7932C119.544 31.233 119.009 32.4391 119.009 32.4693C119.009 32.507 119.137 32.5296 119.303 32.5296H119.589L119.898 31.8511L120.215 31.1727L121.655 31.1878L123.102 31.2104L123.381 31.8511L123.66 32.4919L124.007 32.5145L124.353 32.5371L124.029 31.7984C123.848 31.3913 123.306 30.1928 122.823 29.1374L121.956 27.2152L121.67 27.1926L121.376 27.17L120.192 29.7932ZM122.19 29.16C122.469 29.7857 122.718 30.3661 122.748 30.434C122.793 30.5621 122.71 30.5697 121.647 30.5697C120.584 30.5697 120.501 30.5621 120.547 30.434C120.675 30.0872 121.617 28.0067 121.647 28.0067C121.67 28.0067 121.911 28.5268 122.19 29.16Z" fill="white"/>
<path d="M125.604 27.3504C125.167 27.5615 125.016 27.7123 124.85 28.1042C124.617 28.6621 124.752 29.25 125.197 29.6194C125.491 29.8682 125.619 29.9209 126.546 30.1697C127.361 30.3808 127.685 30.5541 127.813 30.833C127.933 31.0893 127.926 31.2175 127.79 31.5039C127.609 31.8808 127.278 32.0316 126.66 32.0316C126.087 32.0241 125.755 31.911 125.242 31.5567L124.911 31.3306L124.707 31.5416L124.496 31.7602L124.752 31.9487C125.8 32.7477 127.346 32.8231 128.077 32.1145C128.401 31.7979 128.537 31.421 128.491 30.9461C128.423 30.2375 127.986 29.9059 126.66 29.5591C126.245 29.446 125.823 29.2953 125.717 29.2199C125.25 28.8807 125.235 28.3002 125.695 27.9535C125.936 27.765 126.034 27.7424 126.501 27.7424C126.961 27.75 127.104 27.7876 127.519 28.0063L128.001 28.2625L128.175 28.0439C128.348 27.8329 128.348 27.8103 128.22 27.7123C127.549 27.1921 126.305 27.0188 125.604 27.3504Z" fill="white"/>
<path d="M46.9443 29.891V32.5293H48.8666H50.7888V32.2655V32.0016H49.1681H47.5474V31.0594V30.1171H48.9796H50.4119V29.8533V29.5894H48.9796H47.5474V28.6849V27.7803H49.1681H50.7888V27.5164V27.2526H48.8666H46.9443V29.891Z" fill="white"/>
<path d="M52.1376 28.5416L53.1176 29.8306L52.1 31.18L51.0898 32.5293H51.4517H51.8135L52.6276 31.4363C53.0724 30.8332 53.4644 30.3432 53.4945 30.3432C53.5171 30.3508 53.9016 30.8408 54.3539 31.4363L55.1604 32.5293H55.4996C55.6881 32.5293 55.8389 32.5142 55.8389 32.4916C55.8389 32.469 55.3941 31.8584 54.8514 31.1347L53.8639 29.8231L54.8137 28.5793C55.3338 27.8933 55.7635 27.3205 55.7635 27.2978C55.7635 27.2752 55.6127 27.2526 55.4243 27.2526H55.0851L54.3011 28.3155L53.5171 29.3708L53.0347 28.7452C52.7633 28.3984 52.4015 27.9235 52.2206 27.6823C51.904 27.2601 51.8964 27.2526 51.5271 27.2526H51.1577L52.1376 28.5416Z" fill="white"/>
<path d="M56.4424 29.891V32.5293H56.7816H57.1208V31.587V30.6448H58.0254C59.0732 30.6448 59.5782 30.5015 59.9702 30.102C60.8296 29.205 60.4602 27.7124 59.2993 27.3732C59.0129 27.2828 58.5681 27.2526 57.6711 27.2526H56.4424V29.891ZM59.2089 27.9838C59.6235 28.1873 59.7893 28.4662 59.7893 28.9336C59.7893 29.3934 59.6385 29.6573 59.239 29.906C59.0053 30.0568 58.847 30.0794 58.048 30.1096L57.1208 30.1322V28.9487V27.7577L58.0254 27.8029C58.6812 27.833 58.9978 27.8783 59.2089 27.9838Z" fill="white"/>
<path d="M60.9648 29.891V32.5293H62.9248H64.8847V32.2655V32.0016H63.264H61.6433V31.0594V30.1171H63.0755H64.5078V29.8533V29.5894H63.0755H61.6433V28.6849V27.7803H63.2263H64.8093V27.5164V27.2526H62.8871H60.9648V29.891Z" fill="white"/>
<path d="M65.5635 29.891V32.5293H65.865H66.1665V31.5116V30.494H66.9128H67.6591L68.4204 31.5116L69.1818 32.5293H69.5662H69.9507L69.7698 32.2805C69.6642 32.1524 69.3099 31.67 68.9707 31.2177L68.3526 30.396L68.6089 30.3055C69.4908 29.9965 69.913 29.2954 69.7094 28.4436C69.6416 28.1798 69.5285 27.9763 69.3325 27.7803C68.8803 27.328 68.541 27.2526 66.943 27.2526H65.5635V29.891ZM68.5561 27.9537C68.9255 28.1496 69.1064 28.4286 69.1064 28.813C69.1064 29.2578 68.9556 29.514 68.5938 29.7251C68.3224 29.8759 68.1943 29.891 67.2294 29.891H66.1665V28.8281V27.7577L67.2445 27.7954C68.0284 27.8255 68.3752 27.8632 68.5561 27.9537Z" fill="white"/>
<path d="M70.0859 27.5164V27.7803H70.9905H71.8951V30.1548V32.5293H72.1966H72.4981V30.1548V27.7803H73.4027H74.3073V27.5164V27.2526H72.1966H70.0859V27.5164Z" fill="white"/>
<path d="M86.8965 29.891V32.5293H88.8187H90.7409V32.2655V32.0016H89.1202H87.4995V31.0594V30.1171H88.9318H90.364V29.8533V29.5894H88.9318H87.4995V28.6849V27.7803H89.1202H90.7409V27.5164V27.2526H88.8187H86.8965V29.891Z" fill="white"/>
<path d="M91.4189 29.891V32.5293H91.7205H92.022V30.4186C92.022 29.2578 92.0446 28.3079 92.0823 28.3155C92.1125 28.3155 92.8738 29.2653 93.7859 30.4262C95.3614 32.4464 95.4443 32.5293 95.6855 32.5293H95.9418V29.891V27.2526H95.6403H95.3388L95.3237 29.3331L95.3011 31.4061L93.6804 29.3331L92.0597 27.2601L91.7431 27.2526H91.4189V29.891Z" fill="white"/>
<path d="M98.731 29.891V32.5293H99.0325H99.334V29.891V27.2526H99.0325H98.731V29.891Z" fill="white"/>
<path d="M100.39 29.8905V32.5439L101.694 32.5138C102.968 32.4912 102.998 32.4836 103.495 32.25C104.34 31.8504 104.845 31.1946 104.988 30.3127C105.176 29.1367 104.573 27.9909 103.495 27.4934C103.088 27.3049 102.983 27.2899 101.731 27.2673L100.39 27.2371V29.8905ZM103.179 28.0135C104.4 28.5412 104.769 30.2071 103.887 31.2323C103.42 31.7826 103.141 31.8806 101.995 31.9107L100.993 31.9409V29.8453V27.7572L101.89 27.8025C102.576 27.8402 102.885 27.8854 103.179 28.0135Z" fill="white"/>
<path d="M105.817 29.891V32.5293H106.118H106.42V29.891V27.2526H106.118H105.817V29.891Z" fill="white"/>
<path d="M113.355 29.891V32.5293H113.657H113.958L113.973 30.4337L113.996 28.3456L114.93 29.7176C115.451 30.4714 115.888 31.0744 115.918 31.0594C115.941 31.0443 116.37 30.4337 116.86 29.7025L117.765 28.3758L117.787 30.4488L117.802 32.5293H118.142H118.481V29.891V27.2526H118.142H117.802L116.883 28.6472C116.37 29.4085 115.933 30.0417 115.91 30.0417C115.888 30.0417 115.451 29.4161 114.938 28.6472L114.011 27.2526H113.687H113.355V29.891Z" fill="white"/>
</svg>
