<svg width="4000" height="909" viewBox="0 0 4000 909" fill="none" xmlns="http://www.w3.org/2000/svg">
<g clipPath="url(#clip0_381_2000)">
<path d="M3802.86 213.868L3719.73 232.083C3651.31 249.082 3493.07 290.37 3407.57 319.513C3322.06 348.657 3072 399.432 2853.32 409.048C2508.11 424.229 1976.82 287.99 1976.82 287.99C1976.82 287.99 1414.41 126.236 971.335 213.868L888.205 232.083C819.779 249.082 661.55 290.37 576.044 319.513C469.163 355.943 36.5486 434.266 -184 403.301V-215.999H2647.52H2854.82H5686.34V403.301C5465.8 434.266 4810.6 284.261 4810.6 284.261C4810.6 284.261 4245.94 126.236 3802.86 213.868Z" fill="white"/>
<path d="M2385.86 728.523L2302.73 710.308C2234.31 693.308 2076.07 652.021 1990.57 622.877C1905.06 593.734 1655 542.959 1436.32 533.342C1091.11 518.161 559.82 654.4 559.82 654.4C559.82 654.4 -2.58636 816.154 -445.665 728.523L-528.795 710.308C-597.221 693.308 -755.45 652.021 -840.956 622.877C-947.837 586.448 -1380.45 508.124 -1601 539.089V1158.39H1230.52H1437.82H4269.34V539.089C4048.8 508.124 3393.6 658.129 3393.6 658.129C3393.6 658.129 2828.94 816.154 2385.86 728.523Z" fill="white"/>
</g>
<defs>
<clipPath id="clip0_381_2000">
<rect width="4000" height="908.17" fill="white"/>
</clipPath>
</defs>
</svg>
