<svg width="32" height="32" viewBox="0 0 32 32" fill="none" xmlns="http://www.w3.org/2000/svg">
<path d="M29.1588 0.209065H2.84123C2.25257 0.241074 1.69393 0.479138 1.26313 0.881572C0.832335 1.28401 0.556831 1.82516 0.484863 2.41028V28.9606C0.50762 29.5642 0.768103 30.1344 1.20952 30.5467C1.65092 30.959 2.23745 31.1801 2.84123 31.1618H29.1588C29.7475 31.1298 30.3061 30.8917 30.7369 30.4893C31.1677 30.0869 31.4432 29.5457 31.5152 28.9606V2.41028C31.4924 1.80666 31.2319 1.23652 30.7905 0.824171C30.3491 0.411825 29.7625 0.190719 29.1588 0.209065ZM9.76486 26.5266H5.18789V11.826H9.74547L9.76486 26.5266ZM7.3988 9.76058C6.87522 9.76058 6.3634 9.60532 5.92805 9.31443C5.49272 9.02354 5.15341 8.6101 4.95304 8.12637C4.75267 7.64265 4.70025 7.11037 4.8024 6.59685C4.90454 6.08333 5.15667 5.61163 5.5269 5.24141C5.89713 4.87118 6.36883 4.61905 6.88234 4.5169C7.39586 4.41476 7.92814 4.46718 8.41187 4.66755C8.8956 4.86791 9.30905 5.20721 9.59993 5.64256C9.89083 6.07791 10.0461 6.58972 10.0461 7.11331C10.0487 7.46167 9.98198 7.80707 9.84981 8.12942C9.71774 8.45176 9.5228 8.74463 9.27646 8.99096C9.03012 9.2373 8.73727 9.4322 8.41492 9.56433C8.09257 9.69645 7.74717 9.76316 7.3988 9.76058ZM22.4 26.5266V19.3218C22.4 17.5569 22.4 15.3557 20.0437 15.3557C17.6873 15.3557 17.2509 17.2951 17.2509 19.1763V26.5266H12.6933V11.826H17.1055V13.8818C17.5277 13.1315 18.1505 12.5137 18.9041 12.0975C19.6577 11.6813 20.5123 11.4832 21.3721 11.5254C26.0752 11.5254 26.8121 14.6187 26.8121 18.5848L26.9576 26.5266H22.4Z" fill="white"/>
</svg>
