<svg width="15" height="15" viewBox="0 0 15 15" fill="none" xmlns="http://www.w3.org/2000/svg">
<path d="M14.5586 12.3633C14.8047 12.6367 14.8047 13.0469 14.5312 13.293L13.7656 14.0586C13.5195 14.332 13.1094 14.332 12.8359 14.0586L10.1289 11.3516C9.99219 11.2148 9.9375 11.0508 9.9375 10.8867V10.4219C8.95312 11.1875 7.75 11.625 6.4375 11.625C3.29297 11.625 0.75 9.08203 0.75 5.9375C0.75 2.82031 3.29297 0.25 6.4375 0.25C9.55469 0.25 12.125 2.82031 12.125 5.9375C12.125 7.27734 11.6602 8.48047 10.9219 9.4375H11.3594C11.5234 9.4375 11.6875 9.51953 11.8242 9.62891L14.5586 12.3633ZM6.4375 9.4375C8.35156 9.4375 9.9375 7.87891 9.9375 5.9375C9.9375 4.02344 8.35156 2.4375 6.4375 2.4375C4.49609 2.4375 2.9375 4.02344 2.9375 5.9375C2.9375 7.87891 4.49609 9.4375 6.4375 9.4375Z" fill="#194866"/>
</svg>
