<svg width="25" height="25" viewBox="0 0 25 25" fill="none" xmlns="http://www.w3.org/2000/svg">
<g clipPath="url(#clip0_205_444)">
<path d="M13.55 18.0195C13.6 17.8195 13.6 17.5695 13.6 17.3195C13.6 17.0695 13.6 16.8695 13.55 16.6195L14.95 15.6195C15.1 15.5195 15.15 15.3195 15.05 15.1695L13.7 12.8695C13.6 12.7195 13.45 12.6695 13.3 12.7195L11.75 13.4695C11.4 13.1695 11 12.9695 10.55 12.7695L10.4 11.0695C10.4 10.9195 10.25 10.7695 10.1 10.7695H7.44998C7.29997 10.7695 7.14998 10.9195 7.14998 11.0695L6.94998 12.8195C6.49998 12.9695 6.14998 13.2195 5.74998 13.5195L4.19998 12.8195C4.04998 12.7695 3.84997 12.8195 3.79998 12.9695L2.44998 15.2695C2.34998 15.4195 2.39998 15.6195 2.54998 15.7195L3.94998 16.7195C3.89998 16.9195 3.89998 17.1695 3.89998 17.4195C3.89998 17.6695 3.89998 17.8695 3.94998 18.1195L2.54998 19.1195C2.39998 19.2195 2.34998 19.4195 2.44998 19.5695L3.79998 21.8695C3.89998 22.0195 4.04998 22.0695 4.19998 22.0195L5.74998 21.3195C6.09998 21.6195 6.49998 21.8195 6.94998 22.0195L7.09998 23.7195C7.09998 23.8695 7.24998 24.0195 7.39998 24.0195H10.05C10.2 24.0195 10.35 23.8695 10.35 23.7195L10.5 22.0195C10.95 21.8695 11.3 21.6195 11.7 21.3195L13.25 22.0195C13.4 22.0695 13.6 22.0195 13.65 21.8695L15 19.5695C15.1 19.4195 15.05 19.2195 14.9 19.1195L13.55 18.0195ZM8.74998 19.8195C7.34998 19.8195 6.24998 18.7195 6.24998 17.3195C6.24998 15.9195 7.34998 14.8195 8.74998 14.8195C10.15 14.8195 11.25 15.9195 11.25 17.3195C11.25 18.7195 10.15 19.8195 8.74998 19.8195Z" fill="#E65100"/>
<path d="M21.7002 8.47031C21.7502 8.22031 21.7502 8.02031 21.7502 7.82031C21.7502 7.62031 21.7502 7.42031 21.7002 7.17031L22.9502 6.27031C23.1002 6.17031 23.1002 6.02031 23.0502 5.87031L21.8002 3.72031C21.7002 3.57031 21.5502 3.52031 21.4002 3.62031L19.9502 4.27031C19.6002 4.02031 19.2502 3.82031 18.8502 3.62031L18.7002 2.07031C18.7502 1.92031 18.6502 1.82031 18.5002 1.82031H16.0502C15.9002 1.82031 15.7502 1.92031 15.7502 2.07031L15.6002 3.62031C15.2002 3.77031 14.8502 3.97031 14.5002 4.27031L13.0502 3.62031C12.9002 3.57031 12.7502 3.62031 12.6502 3.72031L11.4002 5.87031C11.3002 6.02031 11.3502 6.17031 11.5002 6.27031L12.7502 7.17031V7.82031C12.7502 8.02031 12.7502 8.22031 12.8002 8.47031L11.5502 9.37031C11.4002 9.47031 11.4002 9.62031 11.4502 9.77031L12.7002 11.9203C12.8002 12.0703 12.9502 12.1203 13.1002 12.0203L14.5502 11.3703C14.9002 11.6203 15.2502 11.8203 15.6502 12.0203L15.8002 13.5703C15.8002 13.7203 15.9502 13.8203 16.1002 13.8203H18.5502C18.7002 13.8203 18.8502 13.7203 18.8502 13.5703L19.0002 12.0203C19.4002 11.8703 19.7502 11.6703 20.1002 11.3703L21.5502 12.0203C21.7002 12.0703 21.8502 12.0203 21.9502 11.9203L23.2002 9.77031C23.3002 9.62031 23.2502 9.47031 23.1002 9.37031L21.7002 8.47031ZM17.2502 10.3203C15.8502 10.3203 14.7502 9.22031 14.7502 7.82031C14.7502 6.42031 15.8502 5.32031 17.2502 5.32031C18.6502 5.32031 19.7502 6.42031 19.7502 7.82031C19.7502 9.22031 18.6502 10.3203 17.2502 10.3203Z" fill="#FFA000"/>
</g>
<defs>
<clipPath id="clip0_205_444">
<rect width="24" height="24" fill="white" transform="translate(0.75 0.820312)"/>
</clipPath>
</defs>
</svg>
