<svg width="19" height="19" viewBox="0 0 19 19" fill="none" xmlns="http://www.w3.org/2000/svg">
<path fill-rule="evenodd" clip-rule="evenodd" d="M17.25 3.82031C16.8522 3.82031 16.4706 3.97835 16.1893 4.25965C15.908 4.54096 15.75 4.92249 15.75 5.32031V6.32031H18.75V5.32031C18.75 4.92249 18.592 4.54096 18.3107 4.25965C18.0294 3.97835 17.6478 3.82031 17.25 3.82031ZM18.75 7.32031H15.75V15.5703L17.25 17.8203L18.75 15.5703V7.32031ZM0.75 1.82031V16.8203C0.75 17.2181 0.908035 17.5997 1.18934 17.881C1.47064 18.1623 1.85218 18.3203 2.25 18.3203H13.25C13.6478 18.3203 14.0294 18.1623 14.3107 17.881C14.592 17.5997 14.75 17.2181 14.75 16.8203V1.82031C14.75 1.42249 14.592 1.04096 14.3107 0.759652C14.0294 0.478348 13.6478 0.320312 13.25 0.320312H2.25C1.85218 0.320312 1.47064 0.478348 1.18934 0.759652C0.908035 1.04096 0.75 1.42249 0.75 1.82031ZM7.75 4.82031C7.75 4.6877 7.80268 4.56053 7.89645 4.46676C7.99021 4.37299 8.11739 4.32031 8.25 4.32031H12.25C12.3826 4.32031 12.5098 4.37299 12.6036 4.46676C12.6973 4.56053 12.75 4.6877 12.75 4.82031C12.75 4.95292 12.6973 5.0801 12.6036 5.17387C12.5098 5.26763 12.3826 5.32031 12.25 5.32031H8.25C8.11739 5.32031 7.99021 5.26763 7.89645 5.17387C7.80268 5.0801 7.75 4.95292 7.75 4.82031ZM8.25 6.32031C8.11739 6.32031 7.99021 6.37299 7.89645 6.46676C7.80268 6.56053 7.75 6.6877 7.75 6.82031C7.75 6.95292 7.80268 7.0801 7.89645 7.17387C7.99021 7.26763 8.11739 7.32031 8.25 7.32031H12.25C12.3826 7.32031 12.5098 7.26763 12.6036 7.17387C12.6973 7.0801 12.75 6.95292 12.75 6.82031C12.75 6.6877 12.6973 6.56053 12.6036 6.46676C12.5098 6.37299 12.3826 6.32031 12.25 6.32031H8.25ZM7.75 11.3203C7.75 11.1877 7.80268 11.0605 7.89645 10.9668C7.99021 10.873 8.11739 10.8203 8.25 10.8203H12.25C12.3826 10.8203 12.5098 10.873 12.6036 10.9668C12.6973 11.0605 12.75 11.1877 12.75 11.3203C12.75 11.4529 12.6973 11.5801 12.6036 11.6739C12.5098 11.7676 12.3826 11.8203 12.25 11.8203H8.25C8.11739 11.8203 7.99021 11.7676 7.89645 11.6739C7.80268 11.5801 7.75 11.4529 7.75 11.3203ZM8.25 12.8203C8.11739 12.8203 7.99021 12.873 7.89645 12.9668C7.80268 13.0605 7.75 13.1877 7.75 13.3203C7.75 13.4529 7.80268 13.5801 7.89645 13.6739C7.99021 13.7676 8.11739 13.8203 8.25 13.8203H12.25C12.3826 13.8203 12.5098 13.7676 12.6036 13.6739C12.6973 13.5801 12.75 13.4529 12.75 13.3203C12.75 13.1877 12.6973 13.0605 12.6036 12.9668C12.5098 12.873 12.3826 12.8203 12.25 12.8203H8.25ZM3.75 11.3203V12.8203H5.25V11.3203H3.75ZM3.25 10.3203H5.75C5.88261 10.3203 6.00979 10.373 6.10355 10.4668C6.19732 10.5605 6.25 10.6877 6.25 10.8203V13.3203C6.25 13.4529 6.19732 13.5801 6.10355 13.6739C6.00979 13.7676 5.88261 13.8203 5.75 13.8203H3.25C3.11739 13.8203 2.99021 13.7676 2.89645 13.6739C2.80268 13.5801 2.75 13.4529 2.75 13.3203V10.8203C2.75 10.6877 2.80268 10.5605 2.89645 10.4668C2.99021 10.373 3.11739 10.3203 3.25 10.3203ZM6.6035 5.17381C6.69458 5.07951 6.74498 4.95321 6.74384 4.82211C6.7427 4.69101 6.69011 4.56561 6.59741 4.4729C6.50471 4.3802 6.3793 4.32761 6.2482 4.32648C6.1171 4.32534 5.9908 4.37573 5.8965 4.46681L4.25 6.11331L3.6035 5.46681C3.5092 5.37573 3.3829 5.32534 3.2518 5.32648C3.1207 5.32761 2.99529 5.3802 2.90259 5.4729C2.80989 5.56561 2.7573 5.69101 2.75616 5.82211C2.75502 5.95321 2.80542 6.07951 2.8965 6.17381L4.25 7.52731L6.6035 5.17381Z" fill="#F98012" fill-opacity="0.5"/>
</svg>
