<svg width="21" height="21" viewBox="0 0 21 21" fill="none" xmlns="http://www.w3.org/2000/svg">
<path fill-rule="evenodd" clip-rule="evenodd" d="M3.625 5.5C3.625 5.23478 3.73036 4.98043 3.91789 4.79289C4.10543 4.60536 4.35978 4.5 4.625 4.5H16.625C16.8902 4.5 17.1446 4.60536 17.3321 4.79289C17.5196 4.98043 17.625 5.23478 17.625 5.5C17.625 5.76522 17.5196 6.01957 17.3321 6.20711C17.1446 6.39464 16.8902 6.5 16.625 6.5H4.625C4.35978 6.5 4.10543 6.39464 3.91789 6.20711C3.73036 6.01957 3.625 5.76522 3.625 5.5ZM3.625 10.5C3.625 10.2348 3.73036 9.98043 3.91789 9.79289C4.10543 9.60536 4.35978 9.5 4.625 9.5H16.625C16.8902 9.5 17.1446 9.60536 17.3321 9.79289C17.5196 9.98043 17.625 10.2348 17.625 10.5C17.625 10.7652 17.5196 11.0196 17.3321 11.2071C17.1446 11.3946 16.8902 11.5 16.625 11.5H4.625C4.35978 11.5 4.10543 11.3946 3.91789 11.2071C3.73036 11.0196 3.625 10.7652 3.625 10.5ZM3.625 15.5C3.625 15.2348 3.73036 14.9804 3.91789 14.7929C4.10543 14.6054 4.35978 14.5 4.625 14.5H16.625C16.8902 14.5 17.1446 14.6054 17.3321 14.7929C17.5196 14.9804 17.625 15.2348 17.625 15.5C17.625 15.7652 17.5196 16.0196 17.3321 16.2071C17.1446 16.3946 16.8902 16.5 16.625 16.5H4.625C4.35978 16.5 4.10543 16.3946 3.91789 16.2071C3.73036 16.0196 3.625 15.7652 3.625 15.5Z" fill="black"/>
</svg>
