<svg width="21" height="17" viewBox="0 0 21 17" fill="none" xmlns="http://www.w3.org/2000/svg">
<g clipPath="url(#clip0_205_260)">
<path fill-rule="evenodd" clip-rule="evenodd" d="M18.5232 14.0229V0.443359C15.7971 0.695768 13.6769 1.30155 11.1528 2.31118V15.8403C13.6769 14.8306 15.8477 14.2753 18.5232 14.0229Z" fill="#F98012" fill-opacity="0.5"/>
<path fill-rule="evenodd" clip-rule="evenodd" d="M20.3905 2.36133H19.3304V14.4769C19.3304 14.6283 19.2294 14.7798 19.0275 14.8303C16.6548 15.0322 14.686 15.3351 12.4648 16.1933H20.3905V2.36133Z" fill="#F98012" fill-opacity="0.5"/>
<path fill-rule="evenodd" clip-rule="evenodd" d="M2.87549 0.443359V14.0229C5.55101 14.2753 7.72174 14.8306 10.2458 15.8403V2.31118C7.67123 1.25106 5.60149 0.695768 2.87549 0.443359Z" fill="#F98012" fill-opacity="0.5"/>
<path fill-rule="evenodd" clip-rule="evenodd" d="M1.00635 2.36133V16.1933H8.93195C6.81174 15.3351 4.6915 15.0322 2.36935 14.8303C2.16743 14.7798 2.06646 14.6283 2.06646 14.4769V2.36133H1.00635Z" fill="#F98012" fill-opacity="0.5"/>
</g>
<defs>
<clipPath id="clip0_205_260">
<rect width="20" height="15.8974" fill="white" transform="translate(0.75 0.371094)"/>
</clipPath>
</defs>
</svg>
