<svg width="1920" height="627" viewBox="0 0 1920 627" fill="none" xmlns="http://www.w3.org/2000/svg">
<path d="M3793.72 196.523L3710.59 178.308C3642.17 161.308 3483.94 120.021 3398.44 90.8775C3312.92 61.7337 3062.86 10.959 2844.18 1.34215C2498.97 -13.8388 1967.68 122.4 1967.68 122.4C1967.68 122.4 1405.28 284.154 962.198 196.523L879.069 178.308C810.642 161.308 652.413 120.021 566.907 90.8775C460.026 54.4478 27.4119 -23.8758 -193.137 7.08929V626.39H2638.39H2845.68H5677.2V7.08929C5456.66 -23.8758 4801.46 126.129 4801.46 126.129C4801.46 126.129 4236.81 284.154 3793.72 196.523Z" fill="white"/>
</svg>
