<svg width="41" height="39" viewBox="0 0 41 39" fill="none" xmlns="http://www.w3.org/2000/svg">
<g clip-path="url(#clip0_1_837)">
<path d="M20.0395 1.28516C18.0381 1.28516 15.1827 7.65898 14.9404 17.8571H25.1386C24.8963 7.65898 22.0409 1.28516 20.0395 1.28516Z" fill="#F98012"/>
<path d="M27.689 17.8612H39.1619C38.8662 13.5542 37.1217 9.47412 34.2123 6.28467C31.3029 3.09522 27.3998 0.984145 23.1382 0.294922C25.9681 3.3416 27.5106 10.5058 27.689 17.8612Z" fill="#F98012"/>
<path d="M14.9404 20.4082C15.1699 30.6063 18.0254 36.9801 20.0395 36.9801C22.0536 36.9801 24.8963 30.6063 25.1386 20.4082H14.9404Z" fill="#F98012"/>
<path d="M27.6938 20.4082C27.5282 27.7636 25.9984 34.9277 23.1685 37.9744C27.4138 37.267 31.2965 35.148 34.1882 31.9602C37.0799 28.7724 38.8115 24.7023 39.103 20.4082H27.6938Z" fill="#F98012"/>
<path d="M12.394 17.8612C12.5597 10.5058 14.0894 3.3416 16.9194 0.294922C12.674 1.00236 8.79143 3.12137 5.89973 6.30918C3.00804 9.49697 1.27638 13.5671 0.984863 17.8612H12.394Z" fill="#F98012"/>
<path d="M12.3928 20.4082H0.919922C1.21567 24.7151 2.96016 28.7952 5.86954 31.9847C8.77893 35.1742 12.682 37.2852 16.9437 37.9744C14.1138 34.9277 12.5712 27.7636 12.3928 20.4082Z" fill="#F98012"/>
</g>
<defs>
<clipPath id="clip0_1_837">
<rect width="40" height="38.0488" fill="white" transform="translate(0.0400391 0.111328)"/>
</clipPath>
</defs>
</svg>
