<svg width="25" height="25" viewBox="0 0 25 25" fill="none" xmlns="http://www.w3.org/2000/svg">
<path d="M18.0811 0.384521H7.08105C5.35796 0.387166 3.7062 1.07284 2.48778 2.29125C1.26937 3.50966 0.5837 5.16143 0.581055 6.88452L0.581055 17.8845C0.5837 19.6076 1.26937 21.2594 2.48778 22.4778C3.7062 23.6962 5.35796 24.3819 7.08105 24.3845H18.0811C19.8041 24.3819 21.4559 23.6962 22.6743 22.4778C23.8927 21.2594 24.5784 19.6076 24.5811 17.8845V6.88452C24.5784 5.16143 23.8927 3.50966 22.6743 2.29125C21.4559 1.07284 19.8041 0.387166 18.0811 0.384521ZM12.5811 17.8845C11.4933 17.8845 10.4299 17.562 9.52542 16.9576C8.62095 16.3533 7.916 15.4943 7.49972 14.4893C7.08344 13.4843 6.97452 12.3784 7.18674 11.3115C7.39895 10.2446 7.92278 9.26462 8.69197 8.49543C9.46116 7.72624 10.4412 7.20242 11.5081 6.9902C12.575 6.77798 13.6808 6.8869 14.6858 7.30318C15.6908 7.71947 16.5498 8.42441 17.1541 9.32889C17.7585 10.2334 18.0811 11.2967 18.0811 12.3845C18.0811 13.8432 17.5016 15.2422 16.4701 16.2736C15.4387 17.3051 14.0397 17.8845 12.5811 17.8845ZM19.0811 6.88452C18.7844 6.88452 18.4944 6.79655 18.2477 6.63173C18.001 6.4669 17.8088 6.23264 17.6952 5.95855C17.5817 5.68446 17.552 5.38286 17.6099 5.09189C17.6678 4.80091 17.8106 4.53364 18.0204 4.32386C18.2302 4.11408 18.4974 3.97122 18.7884 3.91334C19.0794 3.85547 19.381 3.88517 19.6551 3.9987C19.9292 4.11223 20.1634 4.30449 20.3283 4.55117C20.4931 4.79784 20.5811 5.08785 20.5811 5.38452C20.5811 5.78235 20.423 6.16388 20.1417 6.44518C19.8604 6.72649 19.4789 6.88452 19.0811 6.88452Z" fill="white"/>
</svg>
