<svg width="18" height="10" viewBox="0 0 18 10" fill="none" xmlns="http://www.w3.org/2000/svg">
<path d="M4.15625 4.73047L4.45703 5.74219H3.39062L3.71875 4.73047C3.80078 4.40234 3.91016 3.80078 3.91016 3.80078H3.9375C3.9375 3.80078 4.04688 4.40234 4.15625 4.73047ZM16.8438 0.875C17.1992 0.875 17.5 1.17578 17.5 1.53125V8.96875C17.5 9.35156 17.1992 9.625 16.8438 9.625H9.1875V0.875H16.8438ZM16.1875 4.15625V3.71875C16.1875 3.55469 16.0234 3.39062 15.8594 3.39062H14.1094V2.95312C14.1094 2.78906 13.9453 2.625 13.7812 2.625H13.3438C13.1523 2.625 13.0156 2.78906 13.0156 2.95312V3.39062H11.2656C11.0742 3.39062 10.9375 3.55469 10.9375 3.71875V4.15625C10.9375 4.34766 11.0742 4.48438 11.2656 4.48438H14.3828C14.2188 4.89453 13.918 5.27734 13.5625 5.6875C13.3711 5.49609 13.207 5.30469 13.0703 5.11328C12.9883 4.97656 12.7969 4.92188 12.6328 5.00391L12.4414 5.14062L12.2773 5.25C12.1133 5.33203 12.0586 5.55078 12.168 5.71484C12.332 5.93359 12.5234 6.17969 12.7422 6.39844C12.5234 6.58984 12.2773 6.75391 12.0312 6.89062C11.8672 7 11.8125 7.19141 11.9219 7.35547L12.1406 7.71094C12.2227 7.875 12.4141 7.92969 12.5781 7.84766C12.9336 7.62891 13.2617 7.41016 13.5625 7.16406C13.8633 7.41016 14.1641 7.62891 14.5195 7.84766C14.6836 7.92969 14.875 7.875 14.9844 7.71094L15.2031 7.35547C15.2852 7.19141 15.2305 7 15.0938 6.89062C14.8477 6.75391 14.6016 6.58984 14.3555 6.39844C14.9297 5.79688 15.3398 5.14062 15.5312 4.48438H15.8594C16.0234 4.48438 16.1875 4.34766 16.1875 4.15625ZM0 1.53125C0 1.17578 0.273438 0.875 0.65625 0.875H8.3125V9.625H0.65625C0.273438 9.625 0 9.35156 0 8.96875V1.53125ZM1.58594 7.46484C1.53125 7.65625 1.69531 7.875 1.91406 7.875H2.54297C2.67969 7.875 2.81641 7.79297 2.84375 7.65625L3.08984 6.78125H4.75781L5.00391 7.65625C5.03125 7.79297 5.16797 7.875 5.30469 7.875H5.93359C6.17969 7.875 6.31641 7.65625 6.26172 7.46484L4.67578 2.81641C4.64844 2.70703 4.51172 2.59766 4.375 2.59766H3.47266C3.33594 2.59766 3.22656 2.70703 3.17188 2.81641L1.58594 7.46484Z" fill="black"/>
</svg>
