<svg width="711" height="425" viewBox="0 0 711 425" fill="none" xmlns="http://www.w3.org/2000/svg">
<g clip-path="url(#clip0_295_2028)">
<path d="M677.621 133.901C677.389 149.729 676.047 165.522 673.605 181.162C677.037 234.081 660.135 286.314 626.353 327.192C605.027 350.578 578.705 368.857 549.343 380.671C519.981 392.485 488.334 397.53 456.754 395.431C430.491 396.285 404.201 395.764 377.993 393.871C363.223 393.546 348.473 392.61 333.781 391.066C319.334 392.364 304.827 392.888 290.324 392.635C330.596 413.213 375.115 424.106 420.338 424.447C500.222 422.277 575.988 388.529 631.036 330.599C678.593 278.678 705.379 211.071 706.285 140.667C708.41 115.189 706.801 89.5378 701.509 64.5254C696.028 88.4321 688.02 111.688 677.621 133.901Z" stroke="black"/>
<path d="M649.682 0.5H710.001C708.227 46.6837 697.217 92.0438 677.621 133.901C681.605 87.6559 671.888 41.2606 649.682 0.5Z" stroke="black"/>
<path id="bottom" d="M108.978 0.5H22.2057C6.62792 29.914 -0.801646 62.9583 0.686761 96.2094C2.17517 129.46 12.5274 161.709 30.671 189.613C21.3668 153.864 23.9791 116.055 38.1116 81.925C52.244 47.795 77.125 19.2071 108.978 0.5Z" stroke="black"/>
<path id="image" d="M30.6709 189.613C21.3667 153.864 23.9791 116.055 38.1116 81.925C52.244 47.795 77.125 19.2071 108.978 0.5H649.682C671.888 41.2606 681.605 87.6559 677.621 133.901C677.389 149.73 676.047 165.522 673.605 181.162C677.037 234.081 660.135 286.315 626.353 327.192C605.027 350.578 578.705 368.857 549.343 380.671C519.981 392.485 488.334 397.53 456.754 395.432C430.491 396.285 404.201 395.764 377.993 393.871C363.223 393.546 348.473 392.611 333.781 391.067C319.334 392.365 304.827 392.888 290.324 392.635C232.151 387.2 176.76 365.181 130.732 329.192C84.705 293.204 49.9758 244.759 30.6709 189.613Z" stroke="black"/>
</g>
<defs>
<clipPath id="clip0_295_2028">
<rect width="710.521" height="424.947" fill="white"/>
</clipPath>
</defs>
</svg>
