<svg width="15" height="15" viewBox="0 0 15 15" fill="none" xmlns="http://www.w3.org/2000/svg">
<path d="M5.9375 1.59375L6.625 0.90625C6.9375 0.625 7.40625 0.625 7.6875 0.90625L13.7812 6.96875C14.0625 7.28125 14.0625 7.75 13.7812 8.03125L7.6875 14.125C7.40625 14.4062 6.9375 14.4062 6.625 14.125L5.9375 13.4375C5.65625 13.125 5.65625 12.6562 5.9375 12.3438L9.71875 8.75H0.75C0.3125 8.75 0 8.4375 0 8V7C0 6.59375 0.3125 6.25 0.75 6.25H9.71875L5.9375 2.6875C5.65625 2.375 5.625 1.90625 5.9375 1.59375Z" fill="#07B8DC"/>
</svg>
