<svg width="32" height="23" viewBox="0 0 32 23" fill="none" xmlns="http://www.w3.org/2000/svg">
<path d="M30.8662 4.15454C30.6932 3.49283 30.3481 2.88867 29.8662 2.40333C29.3843 1.91798 28.7826 1.5687 28.122 1.39091C25.6978 0.741211 16.0008 0.741211 16.0008 0.741211C16.0008 0.741211 6.30387 0.741211 3.87963 1.39091C3.21915 1.5687 2.61744 1.91798 2.13549 2.40333C1.65355 2.88867 1.30851 3.49283 1.13538 4.15454C0.687188 6.63416 0.469693 9.14996 0.485685 11.6697C0.469693 14.1894 0.687188 16.7053 1.13538 19.1849C1.30851 19.8465 1.65355 20.4507 2.13549 20.9361C2.61744 21.4214 3.21915 21.7707 3.87963 21.9485C6.29417 22.5982 16.0008 22.5982 16.0008 22.5982C16.0008 22.5982 25.6978 22.5982 28.122 21.9485C28.7826 21.7707 29.3843 21.4214 29.8662 20.9361C30.3481 20.4507 30.6932 19.8465 30.8662 19.1849C31.3144 16.7053 31.5319 14.1894 31.5159 11.6697C31.5319 9.14996 31.3144 6.63416 30.8662 4.15454ZM12.8299 16.2855V7.05394L20.9365 11.6697L12.8299 16.2855Z" fill="white"/>
</svg>
